<?xml version="1.0" encoding="UTF-8"?><svg id="_レイヤー_2" xmlns="http://www.w3.org/2000/svg" viewBox="0 0 89.26 89.26"><defs><style>.cls-1{fill:#fff;}.cls-2{fill:#bd9b5e;stroke:#bd9b5e;stroke-miterlimit:10;stroke-width:.75px;}</style></defs><g id="_レイヤー_1-2"><circle class="cls-2" cx="44.63" cy="44.63" r="44.26"/><path class="cls-1" d="M18.6,49.07c-.03.63.26.94,1.03,1.05.75.1,2.84-.03,3.76-.35.98-.34,1.54,1.06.27,1.39-1.16.31-3.14.35-4.49.18-1.14-.14-1.82-.88-1.83-1.94-.01-1.29.08-4.17.09-5.71,0-.9,1.33-.72,1.32.04-.01.7-.04,1.67-.06,2.62,1.02-.19,3.1-.77,4.07-1.2.94-.41,1.59.9.48,1.29-1.23.41-3.11,1.01-4.58,1.18-.01.57-.03,1.08-.04,1.45ZM24.62,44.93c-.75,0-1.36-.61-1.36-1.36s.61-1.37,1.36-1.37,1.37.62,1.37,1.37-.62,1.36-1.37,1.36ZM24.62,42.9c-.36,0-.65.31-.65.67s.28.65.65.65.67-.28.67-.65-.31-.67-.67-.67Z"/><path class="cls-1" d="M33.07,43.47c.56-.04,1.19-.09,1.7-.12.99-.05,1.86.65,1.38,1.56-1.58,3.01-3.36,5.63-6.99,7.06-1.1.43-1.63-.84-.56-1.21,2.87-.99,5-3.58,5.95-5.77.1-.25,0-.49-.31-.48-.54.01-1.48.1-2.07.17-.88,1.16-2.01,2.52-2.91,3.12-.87.58-1.63-.53-.75-1.07,1.24-.76,2.92-3.14,3.51-4.16.43-.72,1.72-.1,1.11.76l-.09.13Z"/><path class="cls-1" d="M41.47,51.85c-1.27.44-1.47-.94-.57-1.19,2.05-.55,3.2-2.14,3.29-4.07-1.43.01-2.85.06-3.76.09-.44.01-.67-.27-.67-.58s.23-.63.74-.63c1.83-.03,5.9-.05,8.01-.06.45,0,.66.31.63.62-.03.31-.26.59-.71.58-.71-.03-1.77-.04-2.91-.03-.12,2.34-1.5,4.38-4.05,5.27ZM47.04,44c-1.78.03-3.72.08-5.1.08-.97,0-.9-1.21.01-1.2,1.63.01,3.34-.04,5.04-.08.45-.01.66.3.66.59s-.22.61-.61.61Z"/><path class="cls-1" d="M53.9,50.24c-.46.28-.87.19-1.06-.08-.18-.26-.13-.66.25-.84,1.72-.84,3.49-2.56,4.55-4.22.49-.77,1.51-.05,1.02.62-.41.56-.81,1.06-1.21,1.52-.03.99-.05,3.4-.03,4.33.01.43-.27.67-.58.68-.31.01-.62-.21-.62-.66.01-.7.05-2.07.06-3.14-.71.66-1.46,1.23-2.38,1.78Z"/><path class="cls-1" d="M64.94,51.92c-.52.32-.99.18-1.21-.12-.22-.3-.17-.75.35-1.01,2.17-1.07,2.91-3.2,2.71-5.07-.05-.54.3-.79.71-.79s.79.19.77.74c0,.16,0,.32-.01.48.04-.01.06-.04.1-.05.87-.35,1.85-.93,2.35-1.63.19-.27.19-.46-.14-.46-1.45-.01-4.26.03-6.07.12-1.14.05-1.07-1.19-.1-1.24,1.87-.09,4.69-.08,6.62-.08,1.34,0,1.96,1.12,1.06,2.14-.85.97-1.79,1.8-3.2,2.3-.3.1-.56.08-.74-.04-.32,1.98-1.29,3.51-3.2,4.71Z"/><path class="cls-1" d="M20.02,66.91c-1.02.17-1.12-1.07-.23-1.2,1.18-.17,2.07-.52,2.71-1.08.77-.68.81-1.39.43-1.83-.56-.63-1.58-.62-2.41-.37-.93.28-1.77.8-2.65,1.2-.89.41-1.39-.79-.56-1.14.83-.34,1.95-.85,2.97-1.11,1.08-.27,2.57-.28,3.47.66,1.08,1.12.65,2.56-.53,3.54-.77.65-1.79,1.11-3.2,1.34Z"/><path class="cls-1" d="M31.3,60.73c.13-.25.25-.45.41-.67.21-.27.14-.26-.1-.18-.97.31-.75.31-1.63.65-.41.15-.77.28-1.16.39-1.14.31-1.47-1.18-.44-1.39.27-.06,1.02-.21,1.43-.31.63-.15,1.76-.41,3.07-.79,1.33-.37,2.39-.68,3.53-.76.8-.05,1.02.58.88.99-.08.22-.36.48-1.27.43-.66-.04-1.48.21-1.92.36-.72.26-1.37,1.03-1.65,1.51-1.14,1.9-.27,4.61,2.62,4.51,1.36-.05,1.43,1.47.06,1.46-3.9-.01-5.24-3.59-3.83-6.19Z"/><path class="cls-1" d="M43.54,63.72c0-1.64,1.69-2.39,2.16-3.24.19-.35.28-.72.28-1.06,0-1.27-.96-1.56-1.47-1.56-1.03,0-1.46.85-1.56,1.2-.06.26-.36.39-.66.39-.35,0-.71-.19-.71-.62,0-.48.79-2.26,2.92-2.26,1.52,0,2.84,1.06,2.84,2.83,0,.41-.09.87-.26,1.29-.46,1.16-2.16,1.82-2.16,3,0,.49-.37.75-.72.75s-.66-.23-.66-.71ZM44.24,67.11c-.49,0-.89-.41-.89-.85,0-.57.54-.89.89-.89.5,0,.89.31.89.89,0,.62-.54.85-.89.85Z"/><path class="cls-1" d="M55.49,63.72c0-1.64,1.69-2.39,2.16-3.24.19-.35.28-.72.28-1.06,0-1.27-.96-1.56-1.47-1.56-1.03,0-1.46.85-1.56,1.2-.06.26-.36.39-.66.39-.35,0-.71-.19-.71-.62,0-.48.79-2.26,2.92-2.26,1.52,0,2.84,1.06,2.84,2.83,0,.41-.09.87-.26,1.29-.46,1.16-2.16,1.82-2.16,3,0,.49-.37.75-.72.75s-.66-.23-.66-.71ZM56.18,67.11c-.49,0-.89-.41-.89-.85,0-.57.54-.89.89-.89.5,0,.89.31.89.89,0,.62-.54.85-.89.85Z"/><path class="cls-1" d="M67.43,63.72c0-1.64,1.69-2.39,2.16-3.24.19-.35.28-.72.28-1.06,0-1.27-.96-1.56-1.47-1.56-1.03,0-1.46.85-1.56,1.2-.06.26-.36.39-.66.39-.35,0-.71-.19-.71-.62,0-.48.79-2.26,2.92-2.26,1.52,0,2.84,1.06,2.84,2.83,0,.41-.09.87-.26,1.29-.46,1.16-2.16,1.82-2.16,3,0,.49-.37.75-.72.75s-.66-.23-.66-.71ZM68.13,67.11c-.49,0-.89-.41-.89-.85,0-.57.54-.89.89-.89.5,0,.89.31.89.89,0,.62-.54.85-.89.85Z"/><path class="cls-1" d="M43.79,27.79c0-1.64,1.69-2.39,2.16-3.24.19-.35.28-.72.28-1.06,0-1.27-.96-1.56-1.47-1.56-1.03,0-1.46.85-1.56,1.2-.06.26-.36.39-.66.39-.35,0-.71-.19-.71-.62,0-.48.79-2.26,2.92-2.26,1.52,0,2.84,1.06,2.84,2.83,0,.41-.09.87-.26,1.29-.46,1.16-2.16,1.82-2.16,3,0,.49-.37.75-.72.75s-.66-.23-.66-.71ZM44.49,31.17c-.49,0-.89-.41-.89-.85,0-.57.54-.89.89-.89.5,0,.89.31.89.89,0,.62-.54.85-.89.85Z"/><path class="cls-1" d="M44.63,16.83c4.6,0,8.35,3.75,8.35,8.35s-3.75,8.35-8.35,8.35-8.35-3.75-8.35-8.35,3.75-8.35,8.35-8.35M44.63,13.99c-6.18,0-11.19,5.01-11.19,11.19s5.01,11.19,11.19,11.19,11.19-5.01,11.19-11.19-5.01-11.19-11.19-11.19h0Z"/></g></svg>